<mxfile host="app.diagrams.net" agent="Mozilla/5.0 (Windows NT 10.0; Win64; x64) AppleWebKit/537.36 (KHTML, like Gecko) Chrome/137.0.0.0 Safari/537.36" version="27.1.5">
  <diagram name="md-chunk" id="U8RAqAaJDqWfhK1GvfZA">
    <mxGraphModel dx="1773" dy="3222" grid="0" gridSize="10" guides="1" tooltips="1" connect="1" arrows="1" fold="1" page="1" pageScale="1" pageWidth="827" pageHeight="1169" math="0" shadow="0">
      <root>
        <mxCell id="0" />
        <mxCell id="1" parent="0" />
        <mxCell id="oBs3oRwcgIcFms1ozHlf-13" value="" style="rounded=0;whiteSpace=wrap;html=1;" parent="1" vertex="1">
          <mxGeometry x="40" y="210" width="220" height="600" as="geometry" />
        </mxCell>
        <mxCell id="oBs3oRwcgIcFms1ozHlf-1" value="&lt;font&gt;1. 一级标题&lt;/font&gt;" style="text;html=1;align=left;verticalAlign=middle;whiteSpace=wrap;rounded=0;fontStyle=1;fontSize=16;" parent="1" vertex="1">
          <mxGeometry x="60" y="220" width="200" height="30" as="geometry" />
        </mxCell>
        <mxCell id="oBs3oRwcgIcFms1ozHlf-3" value="正文段落1……" style="text;html=1;align=left;verticalAlign=middle;whiteSpace=wrap;rounded=0;" parent="1" vertex="1">
          <mxGeometry x="60" y="260" width="140" height="30" as="geometry" />
        </mxCell>
        <mxCell id="oBs3oRwcgIcFms1ozHlf-4" value="正文段落2……" style="text;html=1;align=left;verticalAlign=middle;whiteSpace=wrap;rounded=0;" parent="1" vertex="1">
          <mxGeometry x="60" y="290" width="140" height="30" as="geometry" />
        </mxCell>
        <mxCell id="oBs3oRwcgIcFms1ozHlf-5" value="&lt;font&gt;1.1 二级标题&lt;/font&gt;" style="text;html=1;align=left;verticalAlign=middle;whiteSpace=wrap;rounded=0;fontStyle=1;fontSize=16;" parent="1" vertex="1">
          <mxGeometry x="80" y="330" width="200" height="30" as="geometry" />
        </mxCell>
        <mxCell id="oBs3oRwcgIcFms1ozHlf-6" value="正文段落3……" style="text;html=1;align=left;verticalAlign=middle;whiteSpace=wrap;rounded=0;" parent="1" vertex="1">
          <mxGeometry x="80" y="360" width="140" height="30" as="geometry" />
        </mxCell>
        <mxCell id="oBs3oRwcgIcFms1ozHlf-7" value="正文段落4……" style="text;html=1;align=left;verticalAlign=middle;whiteSpace=wrap;rounded=0;" parent="1" vertex="1">
          <mxGeometry x="80" y="400" width="140" height="30" as="geometry" />
        </mxCell>
        <mxCell id="oBs3oRwcgIcFms1ozHlf-8" value="&lt;font&gt;1.1.1 三级标题&lt;/font&gt;" style="text;html=1;align=left;verticalAlign=middle;whiteSpace=wrap;rounded=0;fontStyle=1;fontSize=16;" parent="1" vertex="1">
          <mxGeometry x="100" y="440" width="200" height="30" as="geometry" />
        </mxCell>
        <mxCell id="oBs3oRwcgIcFms1ozHlf-9" value="正文段落5……" style="text;html=1;align=left;verticalAlign=middle;whiteSpace=wrap;rounded=0;" parent="1" vertex="1">
          <mxGeometry x="100" y="480" width="140" height="30" as="geometry" />
        </mxCell>
        <mxCell id="oBs3oRwcgIcFms1ozHlf-10" value="正文段落6……" style="text;html=1;align=left;verticalAlign=middle;whiteSpace=wrap;rounded=0;" parent="1" vertex="1">
          <mxGeometry x="100" y="520" width="140" height="30" as="geometry" />
        </mxCell>
        <mxCell id="oBs3oRwcgIcFms1ozHlf-11" value="正文段落7……" style="text;html=1;align=left;verticalAlign=middle;whiteSpace=wrap;rounded=0;" parent="1" vertex="1">
          <mxGeometry x="80" y="600" width="140" height="30" as="geometry" />
        </mxCell>
        <mxCell id="oBs3oRwcgIcFms1ozHlf-12" value="正文段落8……" style="text;html=1;align=left;verticalAlign=middle;whiteSpace=wrap;rounded=0;" parent="1" vertex="1">
          <mxGeometry x="60" y="680" width="140" height="30" as="geometry" />
        </mxCell>
        <mxCell id="oBs3oRwcgIcFms1ozHlf-15" value="" style="endArrow=classic;html=1;rounded=0;" parent="1" edge="1">
          <mxGeometry width="50" height="50" relative="1" as="geometry">
            <mxPoint x="330" y="460" as="sourcePoint" />
            <mxPoint x="420" y="460" as="targetPoint" />
          </mxGeometry>
        </mxCell>
        <mxCell id="oBs3oRwcgIcFms1ozHlf-16" value="&lt;font style=&quot;font-size: 12px;&quot;&gt;Chunk&lt;/font&gt;" style="edgeLabel;html=1;align=center;verticalAlign=middle;resizable=0;points=[];" parent="oBs3oRwcgIcFms1ozHlf-15" vertex="1" connectable="0">
          <mxGeometry x="-0.1822" y="2" relative="1" as="geometry">
            <mxPoint as="offset" />
          </mxGeometry>
        </mxCell>
        <mxCell id="oBs3oRwcgIcFms1ozHlf-17" value="" style="rounded=0;whiteSpace=wrap;html=1;" parent="1" vertex="1">
          <mxGeometry x="500" y="50" width="240" height="200" as="geometry" />
        </mxCell>
        <mxCell id="oBs3oRwcgIcFms1ozHlf-18" value="&lt;font&gt;1. 一级标题&lt;/font&gt;" style="text;html=1;align=left;verticalAlign=middle;whiteSpace=wrap;rounded=0;fontStyle=1;fontSize=16;" parent="1" vertex="1">
          <mxGeometry x="520" y="60" width="200" height="30" as="geometry" />
        </mxCell>
        <mxCell id="oBs3oRwcgIcFms1ozHlf-19" value="正文段落1……" style="text;html=1;align=left;verticalAlign=middle;whiteSpace=wrap;rounded=0;" parent="1" vertex="1">
          <mxGeometry x="520" y="100" width="140" height="30" as="geometry" />
        </mxCell>
        <mxCell id="oBs3oRwcgIcFms1ozHlf-20" value="正文段落2……" style="text;html=1;align=left;verticalAlign=middle;whiteSpace=wrap;rounded=0;" parent="1" vertex="1">
          <mxGeometry x="520" y="130" width="140" height="30" as="geometry" />
        </mxCell>
        <mxCell id="oBs3oRwcgIcFms1ozHlf-21" value="&lt;font&gt;1.1 二级标题&lt;/font&gt;" style="text;html=1;align=left;verticalAlign=middle;whiteSpace=wrap;rounded=0;fontStyle=1;fontSize=16;" parent="1" vertex="1">
          <mxGeometry x="540" y="170" width="200" height="30" as="geometry" />
        </mxCell>
        <mxCell id="oBs3oRwcgIcFms1ozHlf-22" value="正文段落3……" style="text;html=1;align=left;verticalAlign=middle;whiteSpace=wrap;rounded=0;" parent="1" vertex="1">
          <mxGeometry x="540" y="210" width="140" height="30" as="geometry" />
        </mxCell>
        <mxCell id="oBs3oRwcgIcFms1ozHlf-23" value="" style="rounded=0;whiteSpace=wrap;html=1;" parent="1" vertex="1">
          <mxGeometry x="500" y="280" width="240" height="200" as="geometry" />
        </mxCell>
        <mxCell id="oBs3oRwcgIcFms1ozHlf-24" value="&lt;font&gt;1. 一级标题&lt;/font&gt;" style="text;html=1;align=left;verticalAlign=middle;whiteSpace=wrap;rounded=0;fontStyle=1;fontSize=16;" parent="1" vertex="1">
          <mxGeometry x="520" y="290" width="200" height="30" as="geometry" />
        </mxCell>
        <mxCell id="oBs3oRwcgIcFms1ozHlf-27" value="&lt;font&gt;1.1 二级标题&lt;/font&gt;" style="text;html=1;align=left;verticalAlign=middle;whiteSpace=wrap;rounded=0;fontStyle=1;fontSize=16;" parent="1" vertex="1">
          <mxGeometry x="530" y="330" width="200" height="30" as="geometry" />
        </mxCell>
        <mxCell id="oBs3oRwcgIcFms1ozHlf-29" value="正文段落4……" style="text;html=1;align=left;verticalAlign=middle;whiteSpace=wrap;rounded=0;" parent="1" vertex="1">
          <mxGeometry x="530" y="370" width="140" height="30" as="geometry" />
        </mxCell>
        <mxCell id="oBs3oRwcgIcFms1ozHlf-30" value="&lt;font&gt;1.1.1 三级标题&lt;/font&gt;" style="text;html=1;align=left;verticalAlign=middle;whiteSpace=wrap;rounded=0;fontStyle=1;fontSize=16;" parent="1" vertex="1">
          <mxGeometry x="550" y="410" width="200" height="30" as="geometry" />
        </mxCell>
        <mxCell id="oBs3oRwcgIcFms1ozHlf-31" value="正文段落5……" style="text;html=1;align=left;verticalAlign=middle;whiteSpace=wrap;rounded=0;" parent="1" vertex="1">
          <mxGeometry x="550" y="440" width="140" height="30" as="geometry" />
        </mxCell>
        <mxCell id="oBs3oRwcgIcFms1ozHlf-33" value="" style="rounded=0;whiteSpace=wrap;html=1;" parent="1" vertex="1">
          <mxGeometry x="500" y="500" width="240" height="170" as="geometry" />
        </mxCell>
        <mxCell id="oBs3oRwcgIcFms1ozHlf-34" value="&lt;font&gt;1. 一级标题&lt;/font&gt;" style="text;html=1;align=left;verticalAlign=middle;whiteSpace=wrap;rounded=0;fontStyle=1;fontSize=16;" parent="1" vertex="1">
          <mxGeometry x="520" y="510" width="200" height="30" as="geometry" />
        </mxCell>
        <mxCell id="oBs3oRwcgIcFms1ozHlf-35" value="&lt;font&gt;1.1 二级标题&lt;/font&gt;" style="text;html=1;align=left;verticalAlign=middle;whiteSpace=wrap;rounded=0;fontStyle=1;fontSize=16;" parent="1" vertex="1">
          <mxGeometry x="530" y="550" width="200" height="30" as="geometry" />
        </mxCell>
        <mxCell id="oBs3oRwcgIcFms1ozHlf-37" value="&lt;font&gt;1.1.1 三级标题&lt;/font&gt;" style="text;html=1;align=left;verticalAlign=middle;whiteSpace=wrap;rounded=0;fontStyle=1;fontSize=16;" parent="1" vertex="1">
          <mxGeometry x="550" y="590" width="200" height="30" as="geometry" />
        </mxCell>
        <mxCell id="oBs3oRwcgIcFms1ozHlf-39" value="正文段落6……" style="text;html=1;align=left;verticalAlign=middle;whiteSpace=wrap;rounded=0;" parent="1" vertex="1">
          <mxGeometry x="550" y="630" width="140" height="30" as="geometry" />
        </mxCell>
        <mxCell id="oBs3oRwcgIcFms1ozHlf-40" value="&lt;font&gt;1.2 二级标题&lt;/font&gt;" style="text;html=1;align=left;verticalAlign=middle;whiteSpace=wrap;rounded=0;fontStyle=1;fontSize=16;" parent="1" vertex="1">
          <mxGeometry x="80" y="560" width="200" height="30" as="geometry" />
        </mxCell>
        <mxCell id="oBs3oRwcgIcFms1ozHlf-41" value="&lt;font&gt;2 一级标题&lt;/font&gt;" style="text;html=1;align=left;verticalAlign=middle;whiteSpace=wrap;rounded=0;fontStyle=1;fontSize=16;" parent="1" vertex="1">
          <mxGeometry x="60" y="640" width="200" height="30" as="geometry" />
        </mxCell>
        <mxCell id="oBs3oRwcgIcFms1ozHlf-42" value="" style="rounded=0;whiteSpace=wrap;html=1;" parent="1" vertex="1">
          <mxGeometry x="495" y="690" width="240" height="130" as="geometry" />
        </mxCell>
        <mxCell id="oBs3oRwcgIcFms1ozHlf-43" value="&lt;font&gt;1 一级标题&lt;/font&gt;" style="text;html=1;align=left;verticalAlign=middle;whiteSpace=wrap;rounded=0;fontStyle=1;fontSize=16;" parent="1" vertex="1">
          <mxGeometry x="515" y="700" width="200" height="30" as="geometry" />
        </mxCell>
        <mxCell id="oBs3oRwcgIcFms1ozHlf-44" value="&lt;font&gt;1.2 二级标题&lt;/font&gt;" style="text;html=1;align=left;verticalAlign=middle;whiteSpace=wrap;rounded=0;fontStyle=1;fontSize=16;" parent="1" vertex="1">
          <mxGeometry x="525" y="740" width="200" height="30" as="geometry" />
        </mxCell>
        <mxCell id="oBs3oRwcgIcFms1ozHlf-46" value="正文段落7……" style="text;html=1;align=left;verticalAlign=middle;whiteSpace=wrap;rounded=0;" parent="1" vertex="1">
          <mxGeometry x="545" y="780" width="140" height="30" as="geometry" />
        </mxCell>
        <mxCell id="oBs3oRwcgIcFms1ozHlf-47" value="" style="rounded=0;whiteSpace=wrap;html=1;" parent="1" vertex="1">
          <mxGeometry x="500" y="840" width="240" height="90" as="geometry" />
        </mxCell>
        <mxCell id="oBs3oRwcgIcFms1ozHlf-48" value="&lt;font&gt;2 一级标题&lt;/font&gt;" style="text;html=1;align=left;verticalAlign=middle;whiteSpace=wrap;rounded=0;fontStyle=1;fontSize=16;" parent="1" vertex="1">
          <mxGeometry x="520" y="850" width="200" height="30" as="geometry" />
        </mxCell>
        <mxCell id="oBs3oRwcgIcFms1ozHlf-50" value="正文段落8……" style="text;html=1;align=left;verticalAlign=middle;whiteSpace=wrap;rounded=0;" parent="1" vertex="1">
          <mxGeometry x="520" y="890" width="140" height="30" as="geometry" />
        </mxCell>
        <mxCell id="oBs3oRwcgIcFms1ozHlf-51" value="方案2：拆分chunk时，如果碰到比当前高级别的标题，立即结束" style="text;html=1;align=left;verticalAlign=top;whiteSpace=wrap;rounded=0;" parent="1" vertex="1">
          <mxGeometry x="40" y="850" width="350" height="30" as="geometry" />
        </mxCell>
        <mxCell id="oBs3oRwcgIcFms1ozHlf-52" value="" style="rounded=0;whiteSpace=wrap;html=1;" parent="1" vertex="1">
          <mxGeometry x="25" y="1380" width="220" height="600" as="geometry" />
        </mxCell>
        <mxCell id="oBs3oRwcgIcFms1ozHlf-53" value="&lt;font&gt;1. 一级标题&lt;/font&gt;" style="text;html=1;align=left;verticalAlign=middle;whiteSpace=wrap;rounded=0;fontStyle=1;fontSize=16;" parent="1" vertex="1">
          <mxGeometry x="45" y="1390" width="200" height="30" as="geometry" />
        </mxCell>
        <mxCell id="oBs3oRwcgIcFms1ozHlf-54" value="正文段落1……" style="text;html=1;align=left;verticalAlign=middle;whiteSpace=wrap;rounded=0;" parent="1" vertex="1">
          <mxGeometry x="45" y="1430" width="140" height="30" as="geometry" />
        </mxCell>
        <mxCell id="oBs3oRwcgIcFms1ozHlf-55" value="正文段落2……" style="text;html=1;align=left;verticalAlign=middle;whiteSpace=wrap;rounded=0;" parent="1" vertex="1">
          <mxGeometry x="45" y="1460" width="140" height="30" as="geometry" />
        </mxCell>
        <mxCell id="oBs3oRwcgIcFms1ozHlf-56" value="&lt;font&gt;1.1 二级标题&lt;/font&gt;" style="text;html=1;align=left;verticalAlign=middle;whiteSpace=wrap;rounded=0;fontStyle=1;fontSize=16;" parent="1" vertex="1">
          <mxGeometry x="65" y="1500" width="200" height="30" as="geometry" />
        </mxCell>
        <mxCell id="oBs3oRwcgIcFms1ozHlf-57" value="正文段落3……" style="text;html=1;align=left;verticalAlign=middle;whiteSpace=wrap;rounded=0;" parent="1" vertex="1">
          <mxGeometry x="65" y="1530" width="140" height="30" as="geometry" />
        </mxCell>
        <mxCell id="oBs3oRwcgIcFms1ozHlf-58" value="正文段落4……" style="text;html=1;align=left;verticalAlign=middle;whiteSpace=wrap;rounded=0;" parent="1" vertex="1">
          <mxGeometry x="65" y="1570" width="140" height="30" as="geometry" />
        </mxCell>
        <mxCell id="oBs3oRwcgIcFms1ozHlf-59" value="&lt;font&gt;1.1.1 三级标题&lt;/font&gt;" style="text;html=1;align=left;verticalAlign=middle;whiteSpace=wrap;rounded=0;fontStyle=1;fontSize=16;" parent="1" vertex="1">
          <mxGeometry x="85" y="1610" width="200" height="30" as="geometry" />
        </mxCell>
        <mxCell id="oBs3oRwcgIcFms1ozHlf-60" value="正文段落5……" style="text;html=1;align=left;verticalAlign=middle;whiteSpace=wrap;rounded=0;" parent="1" vertex="1">
          <mxGeometry x="85" y="1650" width="140" height="30" as="geometry" />
        </mxCell>
        <mxCell id="oBs3oRwcgIcFms1ozHlf-61" value="正文段落6……" style="text;html=1;align=left;verticalAlign=middle;whiteSpace=wrap;rounded=0;" parent="1" vertex="1">
          <mxGeometry x="85" y="1690" width="140" height="30" as="geometry" />
        </mxCell>
        <mxCell id="oBs3oRwcgIcFms1ozHlf-62" value="正文段落7……" style="text;html=1;align=left;verticalAlign=middle;whiteSpace=wrap;rounded=0;" parent="1" vertex="1">
          <mxGeometry x="65" y="1770" width="140" height="30" as="geometry" />
        </mxCell>
        <mxCell id="oBs3oRwcgIcFms1ozHlf-63" value="正文段落8……" style="text;html=1;align=left;verticalAlign=middle;whiteSpace=wrap;rounded=0;" parent="1" vertex="1">
          <mxGeometry x="45" y="1850" width="140" height="30" as="geometry" />
        </mxCell>
        <mxCell id="oBs3oRwcgIcFms1ozHlf-64" value="" style="endArrow=classic;html=1;rounded=0;" parent="1" edge="1">
          <mxGeometry width="50" height="50" relative="1" as="geometry">
            <mxPoint x="315" y="1630" as="sourcePoint" />
            <mxPoint x="405" y="1630" as="targetPoint" />
          </mxGeometry>
        </mxCell>
        <mxCell id="oBs3oRwcgIcFms1ozHlf-65" value="&lt;font style=&quot;font-size: 12px;&quot;&gt;Chunk&lt;/font&gt;" style="edgeLabel;html=1;align=center;verticalAlign=middle;resizable=0;points=[];" parent="oBs3oRwcgIcFms1ozHlf-64" vertex="1" connectable="0">
          <mxGeometry x="-0.1822" y="2" relative="1" as="geometry">
            <mxPoint as="offset" />
          </mxGeometry>
        </mxCell>
        <mxCell id="oBs3oRwcgIcFms1ozHlf-66" value="" style="rounded=0;whiteSpace=wrap;html=1;" parent="1" vertex="1">
          <mxGeometry x="485" y="1220" width="240" height="200" as="geometry" />
        </mxCell>
        <mxCell id="oBs3oRwcgIcFms1ozHlf-67" value="&lt;font&gt;1. 一级标题&lt;/font&gt;" style="text;html=1;align=left;verticalAlign=middle;whiteSpace=wrap;rounded=0;fontStyle=1;fontSize=16;" parent="1" vertex="1">
          <mxGeometry x="505" y="1230" width="200" height="30" as="geometry" />
        </mxCell>
        <mxCell id="oBs3oRwcgIcFms1ozHlf-68" value="正文段落1……" style="text;html=1;align=left;verticalAlign=middle;whiteSpace=wrap;rounded=0;" parent="1" vertex="1">
          <mxGeometry x="505" y="1270" width="140" height="30" as="geometry" />
        </mxCell>
        <mxCell id="oBs3oRwcgIcFms1ozHlf-69" value="正文段落2……" style="text;html=1;align=left;verticalAlign=middle;whiteSpace=wrap;rounded=0;" parent="1" vertex="1">
          <mxGeometry x="505" y="1300" width="140" height="30" as="geometry" />
        </mxCell>
        <mxCell id="oBs3oRwcgIcFms1ozHlf-70" value="&lt;font&gt;1.1 二级标题&lt;/font&gt;" style="text;html=1;align=left;verticalAlign=middle;whiteSpace=wrap;rounded=0;fontStyle=1;fontSize=16;" parent="1" vertex="1">
          <mxGeometry x="525" y="1340" width="200" height="30" as="geometry" />
        </mxCell>
        <mxCell id="oBs3oRwcgIcFms1ozHlf-71" value="正文段落3……" style="text;html=1;align=left;verticalAlign=middle;whiteSpace=wrap;rounded=0;" parent="1" vertex="1">
          <mxGeometry x="525" y="1380" width="140" height="30" as="geometry" />
        </mxCell>
        <mxCell id="oBs3oRwcgIcFms1ozHlf-72" value="" style="rounded=0;whiteSpace=wrap;html=1;" parent="1" vertex="1">
          <mxGeometry x="485" y="1450" width="240" height="200" as="geometry" />
        </mxCell>
        <mxCell id="oBs3oRwcgIcFms1ozHlf-73" value="&lt;font&gt;1. 一级标题&lt;/font&gt;" style="text;html=1;align=left;verticalAlign=middle;whiteSpace=wrap;rounded=0;fontStyle=1;fontSize=16;" parent="1" vertex="1">
          <mxGeometry x="505" y="1460" width="200" height="30" as="geometry" />
        </mxCell>
        <mxCell id="oBs3oRwcgIcFms1ozHlf-74" value="&lt;font&gt;1.1 二级标题&lt;/font&gt;" style="text;html=1;align=left;verticalAlign=middle;whiteSpace=wrap;rounded=0;fontStyle=1;fontSize=16;" parent="1" vertex="1">
          <mxGeometry x="515" y="1500" width="200" height="30" as="geometry" />
        </mxCell>
        <mxCell id="oBs3oRwcgIcFms1ozHlf-75" value="正文段落4……" style="text;html=1;align=left;verticalAlign=middle;whiteSpace=wrap;rounded=0;" parent="1" vertex="1">
          <mxGeometry x="515" y="1540" width="140" height="30" as="geometry" />
        </mxCell>
        <mxCell id="oBs3oRwcgIcFms1ozHlf-76" value="&lt;font&gt;1.1.1 三级标题&lt;/font&gt;" style="text;html=1;align=left;verticalAlign=middle;whiteSpace=wrap;rounded=0;fontStyle=1;fontSize=16;" parent="1" vertex="1">
          <mxGeometry x="535" y="1580" width="200" height="30" as="geometry" />
        </mxCell>
        <mxCell id="oBs3oRwcgIcFms1ozHlf-77" value="正文段落5……" style="text;html=1;align=left;verticalAlign=middle;whiteSpace=wrap;rounded=0;" parent="1" vertex="1">
          <mxGeometry x="535" y="1610" width="140" height="30" as="geometry" />
        </mxCell>
        <mxCell id="oBs3oRwcgIcFms1ozHlf-78" value="" style="rounded=0;whiteSpace=wrap;html=1;" parent="1" vertex="1">
          <mxGeometry x="485" y="1670" width="240" height="250" as="geometry" />
        </mxCell>
        <mxCell id="oBs3oRwcgIcFms1ozHlf-79" value="&lt;font&gt;1. 一级标题&lt;/font&gt;" style="text;html=1;align=left;verticalAlign=middle;whiteSpace=wrap;rounded=0;fontStyle=1;fontSize=16;" parent="1" vertex="1">
          <mxGeometry x="505" y="1680" width="200" height="30" as="geometry" />
        </mxCell>
        <mxCell id="oBs3oRwcgIcFms1ozHlf-80" value="&lt;font&gt;1.1 二级标题&lt;/font&gt;" style="text;html=1;align=left;verticalAlign=middle;whiteSpace=wrap;rounded=0;fontStyle=1;fontSize=16;" parent="1" vertex="1">
          <mxGeometry x="515" y="1720" width="200" height="30" as="geometry" />
        </mxCell>
        <mxCell id="oBs3oRwcgIcFms1ozHlf-81" value="&lt;font&gt;1.1.1 三级标题&lt;/font&gt;" style="text;html=1;align=left;verticalAlign=middle;whiteSpace=wrap;rounded=0;fontStyle=1;fontSize=16;" parent="1" vertex="1">
          <mxGeometry x="535" y="1760" width="200" height="30" as="geometry" />
        </mxCell>
        <mxCell id="oBs3oRwcgIcFms1ozHlf-82" value="正文段落6……" style="text;html=1;align=left;verticalAlign=middle;whiteSpace=wrap;rounded=0;" parent="1" vertex="1">
          <mxGeometry x="535" y="1800" width="140" height="30" as="geometry" />
        </mxCell>
        <mxCell id="oBs3oRwcgIcFms1ozHlf-83" value="&lt;font&gt;1.2 二级标题&lt;/font&gt;" style="text;html=1;align=left;verticalAlign=middle;whiteSpace=wrap;rounded=0;fontStyle=1;fontSize=16;" parent="1" vertex="1">
          <mxGeometry x="65" y="1730" width="200" height="30" as="geometry" />
        </mxCell>
        <mxCell id="oBs3oRwcgIcFms1ozHlf-84" value="&lt;font&gt;2 一级标题&lt;/font&gt;" style="text;html=1;align=left;verticalAlign=middle;whiteSpace=wrap;rounded=0;fontStyle=1;fontSize=16;" parent="1" vertex="1">
          <mxGeometry x="45" y="1810" width="200" height="30" as="geometry" />
        </mxCell>
        <mxCell id="oBs3oRwcgIcFms1ozHlf-87" value="&lt;font&gt;1.2 二级标题&lt;/font&gt;" style="text;html=1;align=left;verticalAlign=middle;whiteSpace=wrap;rounded=0;fontStyle=1;fontSize=16;" parent="1" vertex="1">
          <mxGeometry x="515" y="1840" width="200" height="30" as="geometry" />
        </mxCell>
        <mxCell id="oBs3oRwcgIcFms1ozHlf-88" value="正文段落7……" style="text;html=1;align=left;verticalAlign=middle;whiteSpace=wrap;rounded=0;" parent="1" vertex="1">
          <mxGeometry x="535" y="1880" width="140" height="30" as="geometry" />
        </mxCell>
        <mxCell id="oBs3oRwcgIcFms1ozHlf-89" value="" style="rounded=0;whiteSpace=wrap;html=1;" parent="1" vertex="1">
          <mxGeometry x="485" y="1940" width="240" height="90" as="geometry" />
        </mxCell>
        <mxCell id="oBs3oRwcgIcFms1ozHlf-90" value="&lt;font&gt;2 一级标题&lt;/font&gt;" style="text;html=1;align=left;verticalAlign=middle;whiteSpace=wrap;rounded=0;fontStyle=1;fontSize=16;" parent="1" vertex="1">
          <mxGeometry x="505" y="1950" width="200" height="30" as="geometry" />
        </mxCell>
        <mxCell id="oBs3oRwcgIcFms1ozHlf-91" value="正文段落8……" style="text;html=1;align=left;verticalAlign=middle;whiteSpace=wrap;rounded=0;" parent="1" vertex="1">
          <mxGeometry x="505" y="1990" width="140" height="30" as="geometry" />
        </mxCell>
        <mxCell id="oBs3oRwcgIcFms1ozHlf-92" value="方案3：拆分chunk时，允许不同级别的标题混排" style="text;html=1;align=left;verticalAlign=top;whiteSpace=wrap;rounded=0;" parent="1" vertex="1">
          <mxGeometry x="27.5" y="2050" width="710" height="30" as="geometry" />
        </mxCell>
        <mxCell id="UzARzECvK9bf_JT9hD38-1" value="" style="rounded=0;whiteSpace=wrap;html=1;" vertex="1" parent="1">
          <mxGeometry x="40" y="-770" width="220" height="600" as="geometry" />
        </mxCell>
        <mxCell id="UzARzECvK9bf_JT9hD38-2" value="&lt;font&gt;1. 一级标题&lt;/font&gt;" style="text;html=1;align=left;verticalAlign=middle;whiteSpace=wrap;rounded=0;fontStyle=1;fontSize=16;" vertex="1" parent="1">
          <mxGeometry x="60" y="-760" width="200" height="30" as="geometry" />
        </mxCell>
        <mxCell id="UzARzECvK9bf_JT9hD38-3" value="正文段落1……" style="text;html=1;align=left;verticalAlign=middle;whiteSpace=wrap;rounded=0;" vertex="1" parent="1">
          <mxGeometry x="60" y="-720" width="140" height="30" as="geometry" />
        </mxCell>
        <mxCell id="UzARzECvK9bf_JT9hD38-4" value="正文段落2……" style="text;html=1;align=left;verticalAlign=middle;whiteSpace=wrap;rounded=0;" vertex="1" parent="1">
          <mxGeometry x="60" y="-690" width="140" height="30" as="geometry" />
        </mxCell>
        <mxCell id="UzARzECvK9bf_JT9hD38-5" value="&lt;font&gt;1.1 二级标题&lt;/font&gt;" style="text;html=1;align=left;verticalAlign=middle;whiteSpace=wrap;rounded=0;fontStyle=1;fontSize=16;" vertex="1" parent="1">
          <mxGeometry x="80" y="-650" width="200" height="30" as="geometry" />
        </mxCell>
        <mxCell id="UzARzECvK9bf_JT9hD38-6" value="正文段落3……" style="text;html=1;align=left;verticalAlign=middle;whiteSpace=wrap;rounded=0;" vertex="1" parent="1">
          <mxGeometry x="80" y="-620" width="140" height="30" as="geometry" />
        </mxCell>
        <mxCell id="UzARzECvK9bf_JT9hD38-7" value="正文段落4……" style="text;html=1;align=left;verticalAlign=middle;whiteSpace=wrap;rounded=0;" vertex="1" parent="1">
          <mxGeometry x="80" y="-580" width="140" height="30" as="geometry" />
        </mxCell>
        <mxCell id="UzARzECvK9bf_JT9hD38-8" value="&lt;font&gt;1.1.1 三级标题&lt;/font&gt;" style="text;html=1;align=left;verticalAlign=middle;whiteSpace=wrap;rounded=0;fontStyle=1;fontSize=16;" vertex="1" parent="1">
          <mxGeometry x="100" y="-540" width="200" height="30" as="geometry" />
        </mxCell>
        <mxCell id="UzARzECvK9bf_JT9hD38-9" value="正文段落5……" style="text;html=1;align=left;verticalAlign=middle;whiteSpace=wrap;rounded=0;" vertex="1" parent="1">
          <mxGeometry x="100" y="-500" width="140" height="30" as="geometry" />
        </mxCell>
        <mxCell id="UzARzECvK9bf_JT9hD38-10" value="正文段落6……" style="text;html=1;align=left;verticalAlign=middle;whiteSpace=wrap;rounded=0;" vertex="1" parent="1">
          <mxGeometry x="100" y="-460" width="140" height="30" as="geometry" />
        </mxCell>
        <mxCell id="UzARzECvK9bf_JT9hD38-11" value="正文段落7……" style="text;html=1;align=left;verticalAlign=middle;whiteSpace=wrap;rounded=0;" vertex="1" parent="1">
          <mxGeometry x="80" y="-380" width="140" height="30" as="geometry" />
        </mxCell>
        <mxCell id="UzARzECvK9bf_JT9hD38-12" value="正文段落8……" style="text;html=1;align=left;verticalAlign=middle;whiteSpace=wrap;rounded=0;" vertex="1" parent="1">
          <mxGeometry x="60" y="-300" width="140" height="30" as="geometry" />
        </mxCell>
        <mxCell id="UzARzECvK9bf_JT9hD38-13" value="" style="endArrow=classic;html=1;rounded=0;" edge="1" parent="1">
          <mxGeometry width="50" height="50" relative="1" as="geometry">
            <mxPoint x="330" y="-520" as="sourcePoint" />
            <mxPoint x="420" y="-520" as="targetPoint" />
          </mxGeometry>
        </mxCell>
        <mxCell id="UzARzECvK9bf_JT9hD38-14" value="&lt;font style=&quot;font-size: 12px;&quot;&gt;Chunk&lt;/font&gt;" style="edgeLabel;html=1;align=center;verticalAlign=middle;resizable=0;points=[];" vertex="1" connectable="0" parent="UzARzECvK9bf_JT9hD38-13">
          <mxGeometry x="-0.1822" y="2" relative="1" as="geometry">
            <mxPoint as="offset" />
          </mxGeometry>
        </mxCell>
        <mxCell id="UzARzECvK9bf_JT9hD38-15" value="" style="rounded=0;whiteSpace=wrap;html=1;" vertex="1" parent="1">
          <mxGeometry x="497.5" y="-950" width="240" height="120" as="geometry" />
        </mxCell>
        <mxCell id="UzARzECvK9bf_JT9hD38-16" value="&lt;font&gt;1. 一级标题&lt;/font&gt;" style="text;html=1;align=left;verticalAlign=middle;whiteSpace=wrap;rounded=0;fontStyle=1;fontSize=16;" vertex="1" parent="1">
          <mxGeometry x="517.5" y="-940" width="200" height="30" as="geometry" />
        </mxCell>
        <mxCell id="UzARzECvK9bf_JT9hD38-17" value="正文段落1……" style="text;html=1;align=left;verticalAlign=middle;whiteSpace=wrap;rounded=0;" vertex="1" parent="1">
          <mxGeometry x="517.5" y="-900" width="140" height="30" as="geometry" />
        </mxCell>
        <mxCell id="UzARzECvK9bf_JT9hD38-18" value="正文段落2……" style="text;html=1;align=left;verticalAlign=middle;whiteSpace=wrap;rounded=0;" vertex="1" parent="1">
          <mxGeometry x="517.5" y="-870" width="140" height="30" as="geometry" />
        </mxCell>
        <mxCell id="UzARzECvK9bf_JT9hD38-21" value="" style="rounded=0;whiteSpace=wrap;html=1;" vertex="1" parent="1">
          <mxGeometry x="497.5" y="-810" width="240" height="160" as="geometry" />
        </mxCell>
        <mxCell id="UzARzECvK9bf_JT9hD38-22" value="&lt;font&gt;1. 一级标题&lt;/font&gt;" style="text;html=1;align=left;verticalAlign=middle;whiteSpace=wrap;rounded=0;fontStyle=1;fontSize=16;" vertex="1" parent="1">
          <mxGeometry x="517.5" y="-790" width="200" height="30" as="geometry" />
        </mxCell>
        <mxCell id="UzARzECvK9bf_JT9hD38-23" value="&lt;font&gt;1.1 二级标题&lt;/font&gt;" style="text;html=1;align=left;verticalAlign=middle;whiteSpace=wrap;rounded=0;fontStyle=1;fontSize=16;" vertex="1" parent="1">
          <mxGeometry x="527.5" y="-750" width="200" height="30" as="geometry" />
        </mxCell>
        <mxCell id="UzARzECvK9bf_JT9hD38-24" value="正文段落4……" style="text;html=1;align=left;verticalAlign=middle;whiteSpace=wrap;rounded=0;" vertex="1" parent="1">
          <mxGeometry x="527.5" y="-690" width="140" height="30" as="geometry" />
        </mxCell>
        <mxCell id="UzARzECvK9bf_JT9hD38-27" value="" style="rounded=0;whiteSpace=wrap;html=1;" vertex="1" parent="1">
          <mxGeometry x="497.5" y="-630" width="240" height="150" as="geometry" />
        </mxCell>
        <mxCell id="UzARzECvK9bf_JT9hD38-28" value="&lt;font&gt;1. 一级标题&lt;/font&gt;" style="text;html=1;align=left;verticalAlign=middle;whiteSpace=wrap;rounded=0;fontStyle=1;fontSize=16;" vertex="1" parent="1">
          <mxGeometry x="512.5" y="-620" width="200" height="30" as="geometry" />
        </mxCell>
        <mxCell id="UzARzECvK9bf_JT9hD38-29" value="&lt;font&gt;1.1 二级标题&lt;/font&gt;" style="text;html=1;align=left;verticalAlign=middle;whiteSpace=wrap;rounded=0;fontStyle=1;fontSize=16;" vertex="1" parent="1">
          <mxGeometry x="522.5" y="-580" width="200" height="30" as="geometry" />
        </mxCell>
        <mxCell id="UzARzECvK9bf_JT9hD38-30" value="&lt;font&gt;1.1.1 三级标题&lt;/font&gt;" style="text;html=1;align=left;verticalAlign=middle;whiteSpace=wrap;rounded=0;fontStyle=1;fontSize=16;" vertex="1" parent="1">
          <mxGeometry x="542.5" y="-544" width="200" height="30" as="geometry" />
        </mxCell>
        <mxCell id="UzARzECvK9bf_JT9hD38-32" value="&lt;font&gt;1.2 二级标题&lt;/font&gt;" style="text;html=1;align=left;verticalAlign=middle;whiteSpace=wrap;rounded=0;fontStyle=1;fontSize=16;" vertex="1" parent="1">
          <mxGeometry x="80" y="-420" width="200" height="30" as="geometry" />
        </mxCell>
        <mxCell id="UzARzECvK9bf_JT9hD38-33" value="&lt;font&gt;2 一级标题&lt;/font&gt;" style="text;html=1;align=left;verticalAlign=middle;whiteSpace=wrap;rounded=0;fontStyle=1;fontSize=16;" vertex="1" parent="1">
          <mxGeometry x="60" y="-340" width="200" height="30" as="geometry" />
        </mxCell>
        <mxCell id="UzARzECvK9bf_JT9hD38-34" value="" style="rounded=0;whiteSpace=wrap;html=1;" vertex="1" parent="1">
          <mxGeometry x="495" y="-310" width="240" height="130" as="geometry" />
        </mxCell>
        <mxCell id="UzARzECvK9bf_JT9hD38-35" value="&lt;font&gt;1 一级标题&lt;/font&gt;" style="text;html=1;align=left;verticalAlign=middle;whiteSpace=wrap;rounded=0;fontStyle=1;fontSize=16;" vertex="1" parent="1">
          <mxGeometry x="515" y="-300" width="200" height="30" as="geometry" />
        </mxCell>
        <mxCell id="UzARzECvK9bf_JT9hD38-36" value="&lt;font&gt;1.2 二级标题&lt;/font&gt;" style="text;html=1;align=left;verticalAlign=middle;whiteSpace=wrap;rounded=0;fontStyle=1;fontSize=16;" vertex="1" parent="1">
          <mxGeometry x="525" y="-260" width="200" height="30" as="geometry" />
        </mxCell>
        <mxCell id="UzARzECvK9bf_JT9hD38-37" value="正文段落7……" style="text;html=1;align=left;verticalAlign=middle;whiteSpace=wrap;rounded=0;" vertex="1" parent="1">
          <mxGeometry x="545" y="-220" width="140" height="30" as="geometry" />
        </mxCell>
        <mxCell id="UzARzECvK9bf_JT9hD38-38" value="" style="rounded=0;whiteSpace=wrap;html=1;" vertex="1" parent="1">
          <mxGeometry x="495" y="-160" width="240" height="90" as="geometry" />
        </mxCell>
        <mxCell id="UzARzECvK9bf_JT9hD38-39" value="&lt;font&gt;2 一级标题&lt;/font&gt;" style="text;html=1;align=left;verticalAlign=middle;whiteSpace=wrap;rounded=0;fontStyle=1;fontSize=16;" vertex="1" parent="1">
          <mxGeometry x="515" y="-150" width="200" height="30" as="geometry" />
        </mxCell>
        <mxCell id="UzARzECvK9bf_JT9hD38-40" value="正文段落8……" style="text;html=1;align=left;verticalAlign=middle;whiteSpace=wrap;rounded=0;" vertex="1" parent="1">
          <mxGeometry x="515" y="-110" width="140" height="30" as="geometry" />
        </mxCell>
        <mxCell id="UzARzECvK9bf_JT9hD38-41" value="方案1：拆分chunk时，如果碰到比当前低级别的标题，立即结束" style="text;html=1;align=left;verticalAlign=top;whiteSpace=wrap;rounded=0;" vertex="1" parent="1">
          <mxGeometry x="40" y="-130" width="350" height="30" as="geometry" />
        </mxCell>
        <mxCell id="UzARzECvK9bf_JT9hD38-42" value="正文段落3……" style="text;html=1;align=left;verticalAlign=middle;whiteSpace=wrap;rounded=0;" vertex="1" parent="1">
          <mxGeometry x="527.5" y="-720" width="140" height="30" as="geometry" />
        </mxCell>
        <mxCell id="UzARzECvK9bf_JT9hD38-43" value="正文段落5……" style="text;html=1;align=left;verticalAlign=middle;whiteSpace=wrap;rounded=0;" vertex="1" parent="1">
          <mxGeometry x="547.5" y="-513" width="140" height="30" as="geometry" />
        </mxCell>
        <mxCell id="UzARzECvK9bf_JT9hD38-45" value="" style="rounded=0;whiteSpace=wrap;html=1;" vertex="1" parent="1">
          <mxGeometry x="497.5" y="-470" width="240" height="150" as="geometry" />
        </mxCell>
        <mxCell id="UzARzECvK9bf_JT9hD38-46" value="&lt;font&gt;1. 一级标题&lt;/font&gt;" style="text;html=1;align=left;verticalAlign=middle;whiteSpace=wrap;rounded=0;fontStyle=1;fontSize=16;" vertex="1" parent="1">
          <mxGeometry x="512.5" y="-460" width="200" height="30" as="geometry" />
        </mxCell>
        <mxCell id="UzARzECvK9bf_JT9hD38-47" value="&lt;font&gt;1.1 二级标题&lt;/font&gt;" style="text;html=1;align=left;verticalAlign=middle;whiteSpace=wrap;rounded=0;fontStyle=1;fontSize=16;" vertex="1" parent="1">
          <mxGeometry x="522.5" y="-420" width="200" height="30" as="geometry" />
        </mxCell>
        <mxCell id="UzARzECvK9bf_JT9hD38-48" value="&lt;font&gt;1.1.1 三级标题&lt;/font&gt;" style="text;html=1;align=left;verticalAlign=middle;whiteSpace=wrap;rounded=0;fontStyle=1;fontSize=16;" vertex="1" parent="1">
          <mxGeometry x="542.5" y="-384" width="200" height="30" as="geometry" />
        </mxCell>
        <mxCell id="UzARzECvK9bf_JT9hD38-49" value="正文段落6……" style="text;html=1;align=left;verticalAlign=middle;whiteSpace=wrap;rounded=0;" vertex="1" parent="1">
          <mxGeometry x="547.5" y="-353" width="140" height="30" as="geometry" />
        </mxCell>
        <mxCell id="UzARzECvK9bf_JT9hD38-50" value="" style="rounded=0;whiteSpace=wrap;html=1;" vertex="1" parent="1">
          <mxGeometry x="60" y="-2010" width="220" height="600" as="geometry" />
        </mxCell>
        <mxCell id="UzARzECvK9bf_JT9hD38-51" value="&lt;font&gt;1. 一级标题&lt;/font&gt;" style="text;html=1;align=left;verticalAlign=middle;whiteSpace=wrap;rounded=0;fontStyle=1;fontSize=16;" vertex="1" parent="1">
          <mxGeometry x="80" y="-2000" width="200" height="30" as="geometry" />
        </mxCell>
        <mxCell id="UzARzECvK9bf_JT9hD38-52" value="正文段落1……" style="text;html=1;align=left;verticalAlign=middle;whiteSpace=wrap;rounded=0;" vertex="1" parent="1">
          <mxGeometry x="80" y="-1960" width="140" height="30" as="geometry" />
        </mxCell>
        <mxCell id="UzARzECvK9bf_JT9hD38-53" value="正文段落2……" style="text;html=1;align=left;verticalAlign=middle;whiteSpace=wrap;rounded=0;" vertex="1" parent="1">
          <mxGeometry x="80" y="-1930" width="140" height="30" as="geometry" />
        </mxCell>
        <mxCell id="UzARzECvK9bf_JT9hD38-54" value="&lt;font&gt;1.1 二级标题&lt;/font&gt;" style="text;html=1;align=left;verticalAlign=middle;whiteSpace=wrap;rounded=0;fontStyle=1;fontSize=16;" vertex="1" parent="1">
          <mxGeometry x="100" y="-1890" width="200" height="30" as="geometry" />
        </mxCell>
        <mxCell id="UzARzECvK9bf_JT9hD38-55" value="正文段落3……" style="text;html=1;align=left;verticalAlign=middle;whiteSpace=wrap;rounded=0;" vertex="1" parent="1">
          <mxGeometry x="100" y="-1860" width="140" height="30" as="geometry" />
        </mxCell>
        <mxCell id="UzARzECvK9bf_JT9hD38-56" value="正文段落4……" style="text;html=1;align=left;verticalAlign=middle;whiteSpace=wrap;rounded=0;" vertex="1" parent="1">
          <mxGeometry x="100" y="-1820" width="140" height="30" as="geometry" />
        </mxCell>
        <mxCell id="UzARzECvK9bf_JT9hD38-57" value="&lt;font&gt;1.1.1 三级标题&lt;/font&gt;" style="text;html=1;align=left;verticalAlign=middle;whiteSpace=wrap;rounded=0;fontStyle=1;fontSize=16;" vertex="1" parent="1">
          <mxGeometry x="120" y="-1780" width="200" height="30" as="geometry" />
        </mxCell>
        <mxCell id="UzARzECvK9bf_JT9hD38-58" value="正文段落5……" style="text;html=1;align=left;verticalAlign=middle;whiteSpace=wrap;rounded=0;" vertex="1" parent="1">
          <mxGeometry x="120" y="-1740" width="140" height="30" as="geometry" />
        </mxCell>
        <mxCell id="UzARzECvK9bf_JT9hD38-59" value="正文段落6……" style="text;html=1;align=left;verticalAlign=middle;whiteSpace=wrap;rounded=0;" vertex="1" parent="1">
          <mxGeometry x="120" y="-1700" width="140" height="30" as="geometry" />
        </mxCell>
        <mxCell id="UzARzECvK9bf_JT9hD38-60" value="正文段落7……" style="text;html=1;align=left;verticalAlign=middle;whiteSpace=wrap;rounded=0;" vertex="1" parent="1">
          <mxGeometry x="100" y="-1620" width="140" height="30" as="geometry" />
        </mxCell>
        <mxCell id="UzARzECvK9bf_JT9hD38-61" value="正文段落8……" style="text;html=1;align=left;verticalAlign=middle;whiteSpace=wrap;rounded=0;" vertex="1" parent="1">
          <mxGeometry x="80" y="-1540" width="140" height="30" as="geometry" />
        </mxCell>
        <mxCell id="UzARzECvK9bf_JT9hD38-62" value="" style="endArrow=classic;html=1;rounded=0;" edge="1" parent="1">
          <mxGeometry width="50" height="50" relative="1" as="geometry">
            <mxPoint x="350" y="-1760" as="sourcePoint" />
            <mxPoint x="440" y="-1760" as="targetPoint" />
          </mxGeometry>
        </mxCell>
        <mxCell id="UzARzECvK9bf_JT9hD38-63" value="&lt;font style=&quot;font-size: 12px;&quot;&gt;Chunk&lt;/font&gt;" style="edgeLabel;html=1;align=center;verticalAlign=middle;resizable=0;points=[];" vertex="1" connectable="0" parent="UzARzECvK9bf_JT9hD38-62">
          <mxGeometry x="-0.1822" y="2" relative="1" as="geometry">
            <mxPoint as="offset" />
          </mxGeometry>
        </mxCell>
        <mxCell id="UzARzECvK9bf_JT9hD38-64" value="" style="rounded=0;whiteSpace=wrap;html=1;" vertex="1" parent="1">
          <mxGeometry x="502.5" y="-2060" width="240" height="200" as="geometry" />
        </mxCell>
        <mxCell id="UzARzECvK9bf_JT9hD38-65" value="&lt;font&gt;1. 一级标题&lt;/font&gt;" style="text;html=1;align=left;verticalAlign=middle;whiteSpace=wrap;rounded=0;fontStyle=1;fontSize=16;" vertex="1" parent="1">
          <mxGeometry x="522.5" y="-2050" width="200" height="30" as="geometry" />
        </mxCell>
        <mxCell id="UzARzECvK9bf_JT9hD38-66" value="正文段落1……" style="text;html=1;align=left;verticalAlign=middle;whiteSpace=wrap;rounded=0;" vertex="1" parent="1">
          <mxGeometry x="522.5" y="-2020" width="140" height="30" as="geometry" />
        </mxCell>
        <mxCell id="UzARzECvK9bf_JT9hD38-67" value="正文段落2……" style="text;html=1;align=left;verticalAlign=middle;whiteSpace=wrap;rounded=0;" vertex="1" parent="1">
          <mxGeometry x="522.5" y="-1990" width="140" height="30" as="geometry" />
        </mxCell>
        <mxCell id="UzARzECvK9bf_JT9hD38-68" value="&lt;font&gt;1.1 二级标题&lt;/font&gt;" style="text;html=1;align=left;verticalAlign=middle;whiteSpace=wrap;rounded=0;fontStyle=1;fontSize=16;" vertex="1" parent="1">
          <mxGeometry x="542.5" y="-1960" width="200" height="30" as="geometry" />
        </mxCell>
        <mxCell id="UzARzECvK9bf_JT9hD38-69" value="正文段落3……" style="text;html=1;align=left;verticalAlign=middle;whiteSpace=wrap;rounded=0;" vertex="1" parent="1">
          <mxGeometry x="542.5" y="-1930" width="140" height="30" as="geometry" />
        </mxCell>
        <mxCell id="UzARzECvK9bf_JT9hD38-70" value="" style="rounded=0;whiteSpace=wrap;html=1;" vertex="1" parent="1">
          <mxGeometry x="502.5" y="-1820" width="240" height="116" as="geometry" />
        </mxCell>
        <mxCell id="UzARzECvK9bf_JT9hD38-73" value="正文段落4……" style="text;html=1;align=left;verticalAlign=middle;whiteSpace=wrap;rounded=0;" vertex="1" parent="1">
          <mxGeometry x="542.5" y="-1900" width="140" height="30" as="geometry" />
        </mxCell>
        <mxCell id="UzARzECvK9bf_JT9hD38-74" value="&lt;font&gt;1.1.1 三级标题&lt;/font&gt;" style="text;html=1;align=left;verticalAlign=middle;whiteSpace=wrap;rounded=0;fontStyle=1;fontSize=16;" vertex="1" parent="1">
          <mxGeometry x="545" y="-1812" width="200" height="30" as="geometry" />
        </mxCell>
        <mxCell id="UzARzECvK9bf_JT9hD38-75" value="正文段落5……" style="text;html=1;align=left;verticalAlign=middle;whiteSpace=wrap;rounded=0;" vertex="1" parent="1">
          <mxGeometry x="545" y="-1782" width="140" height="30" as="geometry" />
        </mxCell>
        <mxCell id="UzARzECvK9bf_JT9hD38-76" value="" style="rounded=0;whiteSpace=wrap;html=1;" vertex="1" parent="1">
          <mxGeometry x="502.5" y="-1610" width="240" height="166" as="geometry" />
        </mxCell>
        <mxCell id="UzARzECvK9bf_JT9hD38-80" value="正文段落6……" style="text;html=1;align=left;verticalAlign=middle;whiteSpace=wrap;rounded=0;" vertex="1" parent="1">
          <mxGeometry x="545" y="-1752" width="140" height="30" as="geometry" />
        </mxCell>
        <mxCell id="UzARzECvK9bf_JT9hD38-81" value="&lt;font&gt;1.2 二级标题&lt;/font&gt;" style="text;html=1;align=left;verticalAlign=middle;whiteSpace=wrap;rounded=0;fontStyle=1;fontSize=16;" vertex="1" parent="1">
          <mxGeometry x="100" y="-1660" width="200" height="30" as="geometry" />
        </mxCell>
        <mxCell id="UzARzECvK9bf_JT9hD38-82" value="&lt;font&gt;2 一级标题&lt;/font&gt;" style="text;html=1;align=left;verticalAlign=middle;whiteSpace=wrap;rounded=0;fontStyle=1;fontSize=16;" vertex="1" parent="1">
          <mxGeometry x="80" y="-1580" width="200" height="30" as="geometry" />
        </mxCell>
        <mxCell id="UzARzECvK9bf_JT9hD38-83" value="&lt;font&gt;1.2 二级标题&lt;/font&gt;" style="text;html=1;align=left;verticalAlign=middle;whiteSpace=wrap;rounded=0;fontStyle=1;fontSize=16;" vertex="1" parent="1">
          <mxGeometry x="547.5" y="-1598" width="200" height="30" as="geometry" />
        </mxCell>
        <mxCell id="UzARzECvK9bf_JT9hD38-84" value="正文段落7……" style="text;html=1;align=left;verticalAlign=middle;whiteSpace=wrap;rounded=0;" vertex="1" parent="1">
          <mxGeometry x="567.5" y="-1558" width="140" height="30" as="geometry" />
        </mxCell>
        <mxCell id="UzARzECvK9bf_JT9hD38-86" value="&lt;font&gt;2 一级标题&lt;/font&gt;" style="text;html=1;align=left;verticalAlign=middle;whiteSpace=wrap;rounded=0;fontStyle=1;fontSize=16;" vertex="1" parent="1">
          <mxGeometry x="517.5" y="-1525" width="200" height="30" as="geometry" />
        </mxCell>
        <mxCell id="UzARzECvK9bf_JT9hD38-87" value="正文段落8……" style="text;html=1;align=left;verticalAlign=middle;whiteSpace=wrap;rounded=0;" vertex="1" parent="1">
          <mxGeometry x="517.5" y="-1488" width="140" height="30" as="geometry" />
        </mxCell>
        <mxCell id="UzARzECvK9bf_JT9hD38-88" value="当前方案：拆分chunk时，标题下的段落不允许拆分，不同级别的标题允许合并" style="text;html=1;align=left;verticalAlign=top;whiteSpace=wrap;rounded=0;" vertex="1" parent="1">
          <mxGeometry x="59" y="-1385" width="710" height="30" as="geometry" />
        </mxCell>
      </root>
    </mxGraphModel>
  </diagram>
</mxfile>
